<svg width="60" height="60" viewBox="0 0 60 60" fill="none" xmlns="http://www.w3.org/2000/svg">
<path d="M27.6144 39.1372H45.1779C45.1779 46.8529 40.5079 53.5534 33.5028 57.0053C30.3556 58.6296 26.7008 59.4418 22.8429 59.4418C10.5586 59.4418 0.507812 50.4062 0.507812 39.1372H9.13721H18.0712C18.3758 39.7463 19.0864 40.1524 19.7971 40.1524C20.2032 40.1524 20.6093 40.0509 20.9139 39.8478C21.2185 40.6601 21.9291 41.1676 22.8428 41.1676C23.7565 41.1676 24.4671 40.5585 24.7717 39.8478C25.0763 40.0509 25.4823 40.1524 25.8885 40.1524C26.5991 40.1524 27.3098 39.7463 27.6144 39.1372Z" fill="#F2EDDA"/>
<path d="M22.8428 45.2286C22.8428 45.2286 23.858 46.7514 23.858 47.2591C23.858 47.7667 23.4519 48.2743 22.8428 48.2743C22.2336 48.2743 21.8276 47.7666 21.8276 47.2591C21.8276 46.7515 22.8428 45.2286 22.8428 45.2286ZM17.7666 44.2134C17.7666 44.2134 17.462 45.9393 17.056 46.3454C16.6499 46.7514 16.0408 46.7514 15.6346 46.3454C15.2286 45.9393 15.2286 45.3302 15.6346 44.924C16.0408 44.5179 17.7666 44.2134 17.7666 44.2134ZM30.0509 44.924C30.457 45.33 30.457 45.9392 30.0509 46.3454C29.6449 46.7514 29.0358 46.7514 28.6296 46.3454C28.2235 45.9393 27.919 44.2134 27.919 44.2134C27.919 44.2134 29.6448 44.5179 30.0509 44.924Z" fill="#AE938D"/>
<path d="M29.9488 5.63453C32.9945 8.68022 34.0097 16.8021 34.0097 16.8021C32.6899 16.4975 31.4716 16.2944 30.3549 16.1929C28.2229 15.5838 25.3803 14.2641 22.8421 11.7259C18.7812 7.66503 18.7812 0.55835 18.7812 0.55835C18.7812 0.55835 24.8727 0.55835 29.9488 5.63453Z" fill="#50DD8E"/>
<path d="M30.3559 16.1929C32.4878 16.8021 34.0107 16.8021 34.0107 16.8021C34.0107 16.8021 37.0564 15.7869 40.102 15.7869C49.2391 15.7869 59.3913 21.7768 59.3913 35.0762C59.3913 48.2741 51.3711 59.4417 42.1324 59.4417C38.2745 59.4417 34.6197 58.1219 33.6045 57.1066L33.503 57.0051C40.4066 53.5534 45.1781 46.8529 45.1781 39.137H27.6147C27.3102 39.7462 26.5995 40.1522 25.8888 40.1522C25.4828 40.1522 25.0766 40.0507 24.772 39.8477C24.4674 40.6599 23.7568 41.1674 22.8431 41.1674C21.9294 41.1674 21.2188 40.5583 20.9142 39.8477C20.6097 40.0507 20.2036 40.1522 19.7974 40.1522C19.0868 40.1522 18.3761 39.7462 18.0715 39.137H9.13754C8.83297 37.5127 8.62988 35.0762 8.62988 35.0762C8.62988 23.604 15.3304 18.7309 23.3507 16.2944C25.1782 15.7867 27.3102 15.7867 30.3559 16.1929Z" fill="#FF7474"/>
</svg>
